Coordinates
version=1
nRows=17
nColumns=36
inDegrees=yes

Units are S.I. units (second, meters, Newtons, ...)
If the header above contains a line with 'inDegrees', this indicates whether rotational values are in degrees (yes) or radians (no).

endheader
time	pelvis_tilt	pelvis_list	pelvis_rotation	pelvis_tx	pelvis_ty	pelvis_tz	hip_flexion_r	hip_adduction_r	hip_rotation_r	knee_angle_r	knee_angle_r_beta	ankle_angle_r	subtalar_angle_r	mtp_angle_r	hip_flexion_l	hip_adduction_l	hip_rotation_l	knee_angle_l	knee_angle_l_beta	ankle_angle_l	subtalar_angle_l	mtp_angle_l	lumbar_extension	lumbar_bending	lumbar_rotation	arm_flex_r	arm_add_r	arm_rot_r	elbow_flex_r	pro_sup_r	arm_flex_l	arm_add_l	arm_rot_l	elbow_flex_l	pro_sup_l
      0.00000000	     -7.28520063	     -2.59505320	     -0.16340844	     -0.05369118	      1.25402444	     -0.02888724	      8.55227653	      2.49596906	      5.73751280	      8.13912032	      0.14205445	      3.76987894	    -10.54302614	     -7.44409845	      6.34703580	     -2.51168992	      4.58985994	      7.07653689	      0.12350887	     11.20584917	     -6.32808804	     -7.44409845	      5.68983936	      3.09072410	     -1.55547408	     32.03418225	     -3.67211186	     55.62036041	    114.54537197	     79.53920957	     35.73685187	      1.82847176	     73.51085345	    115.92181404	     84.16401142
      0.01666670	     -6.92212309	     -2.34759098	     -0.12530865	     -0.05539634	      1.24910726	     -0.03005928	      8.00090276	      2.02694876	      7.05286907	      7.42374572	      0.12956881	      7.58584159	     -8.30127943	     -7.45788423	      4.91113584	     -1.98766813	      5.13381598	      6.54156269	      0.11417181	     11.18212738	     -6.27870525	     -7.45788423	      3.87695087	      3.23122562	     -0.61336857	     35.66590390	     -6.26327177	     64.83313286	    120.62583146	     96.02657130	     38.97518462	      0.93925149	     72.01551917	    120.42638208	    101.74671591
      0.03333330	     -5.16863858	     -2.30297110	     -0.10430630	     -0.04479311	      1.25221032	     -0.03304191	      5.13883738	      1.89943662	      6.87802317	      6.68085597	      0.11660293	      7.76910124	     -7.82346274	     -7.45903090	      2.13633522	     -1.91651377	      5.04724762	      5.30439152	      0.09257910	     10.89458602	     -6.74659496	     -7.45903090	      2.02337723	      3.11013748	     -0.92148579	     36.14154704	     -5.10257075	     64.31781630	    122.10738574	     96.69616009	     39.79243577	      0.76702773	     71.66606309	    120.68635360	    102.72560030
      0.05000000	     -3.75869702	     -2.41517279	      0.06202917	     -0.03821336	      1.25360996	     -0.02916039	      3.13723866	      1.97821710	      6.42000383	      6.40891324	      0.11185664	      8.04419416	     -7.66105742	     -7.46037316	     -0.22330884	     -1.98392944	      5.02575079	      4.39899301	      0.07677691	     10.73911407	     -6.94130443	     -7.46037316	      0.77436187	      3.11426556	     -1.30265286	     35.93815347	     -3.72242229	     64.36535118	    122.24349480	     97.71445302	     39.93452393	      0.57835857	     71.37410693	    120.99427175	    103.90182978
      0.06666670	     -3.41600474	     -2.33547714	      0.09332684	     -0.03823442	      1.25810748	     -0.02953064	      2.69947185	      1.94026889	      6.47768811	      6.78219350	      0.11837161	      8.46162937	     -7.77418532	     -7.46056310	     -0.67369460	     -1.89743875	      5.06861970	      4.64427970	      0.08105797	     10.66624311	     -7.02054312	     -7.46056310	      0.54957013	      2.97812924	     -1.06504892	     35.43308369	     -2.98566229	     64.80880248	    122.16178737	     97.88031001	     39.61998010	      0.78718850	     71.51482305	    121.01930913	    104.04369547
      0.08333330	     -2.81299295	     -2.21012434	      0.04365360	     -0.05250281	      1.25561516	     -0.02671232	      2.48358202	      1.87389106	      6.51502887	      7.23523282	      0.12627863	      9.17739839	     -7.59870454	     -7.47294251	     -1.30281110	     -1.80228603	      5.12550286	      4.82250729	      0.08416863	     10.53701220	     -7.17992449	     -7.47294251	     -0.70851737	      2.83981056	     -1.15754750	     36.59212889	     -2.04844447	     65.35010807	    121.15783323	    101.66141419	     40.69741001	      0.61289488	     70.49765494	    121.08602292	    106.98076734
      0.10000000	     -2.42066112	     -2.11344497	     -0.01194594	     -0.05253694	      1.25946894	     -0.02681582	      2.30010813	      1.80523731	      6.31542412	      7.51892286	      0.13122996	      9.53042399	     -7.38296407	     -7.47715306	     -1.42047216	     -1.79359485	      4.82566887	      5.32851866	      0.09300019	     10.52781993	     -7.36677085	     -7.47715306	     -1.68071572	      2.63795348	     -0.98274881	     36.99142913	     -1.88576655	     65.45957140	    120.90520673	     99.10114358	     41.42900245	      0.36977996	     70.04092733	    120.72328258	    104.23448428
      0.11666670	     -1.97767726	     -2.00069638	     -0.18965569	     -0.05534659	      1.25688934	     -0.02639394	      1.95833439	      1.72986057	      6.21739744	      7.72583311	      0.13484123	      9.51924768	     -7.61786849	     -7.48449544	     -1.59637568	     -1.73556646	      4.39958540	      5.79762389	      0.10118763	     10.41929136	     -7.52087725	     -7.48449544	     -2.64209045	      2.44827407	     -1.00905187	     37.74316762	     -1.43034858	     65.41026820	    120.52786385	     99.57602873	     42.72729523	      0.53484014	     69.39829043	    120.31362173	    104.59612860
      0.13333330	     -1.55927424	     -1.89610900	     -0.19632844	     -0.05510361	      1.25736704	     -0.02633141	      1.71509875	      1.71799375	      6.14549094	      8.02470756	      0.14005757	      9.54789074	     -7.67266120	     -7.48538125	     -1.68227239	     -1.68039493	      4.06638202	      6.21066305	      0.10839652	     10.35202023	     -7.46045202	     -7.48538125	     -3.52018268	      2.29791594	     -1.02891650	     38.14580831	     -1.22871625	     65.29618994	    120.61899787	     98.30314586	     43.56772673	      0.67319699	     68.67848251	    119.77708509	    103.28993847
      0.15000000	     -0.89200137	     -1.81951640	     -0.45980026	     -0.04665359	      1.25846959	     -0.02871858	      0.90622469	      1.65482577	      6.11017562	      8.25486805	      0.14407463	      9.66362401	     -7.68148194	     -7.48569562	     -2.28714962	     -1.59138423	      3.59891918	      6.54176493	      0.11417534	     10.13339442	     -7.72926454	     -7.48569562	     -4.28426826	      2.25646857	     -0.92871954	     37.95120911	     -1.12544438	     65.26995084	    120.79034732	     98.27061051	     43.67622423	      0.99159758	     68.09343386	    119.06505032	    103.23371861
      0.16666670	     -0.54652620	     -1.76484799	     -0.40850850	     -0.03652508	      1.25861457	     -0.02438795	      0.40679974	      1.66754271	      6.10642085	      8.45514350	      0.14757009	      9.81099646	     -7.75584366	     -7.48574067	     -2.54547996	     -1.54564834	      3.44824875	      6.92141863	      0.12080154	      9.81399101	     -7.71497917	     -7.48574067	     -4.48708049	      2.22012014	     -0.93054064	     37.11727131	     -1.16063369	     65.43641652	    120.77885417	     98.27102246	     43.15745493	      0.74922926	     68.12807194	    118.93836258	    103.22172147
      0.18333330	      0.19577000	     -1.70748795	     -0.36538654	     -0.04881609	      1.25958838	     -0.02863293	     -0.53037849	      1.63423070	      6.18011214	      8.42234732	      0.14699769	     10.07186668	     -7.80828066	     -7.49010015	     -3.36216443	     -1.48480115	      3.26087960	      7.02411241	      0.12259389	      9.87492015	     -7.71406758	     -7.49010015	     -5.45614359	      2.17516186	     -0.83081827	     37.03998858	     -1.44447923	     64.52267137	    120.59156399	     98.06418903	     43.33897014	      0.84637893	     67.41011685	    118.37370443	    102.34904665
      0.20000000	      0.59349548	     -1.73211943	     -0.41191156	     -0.07026349	      1.26304588	     -0.02351620	     -0.69522378	      1.76713165	      6.04968922	      8.97007358	      0.15655732	     10.17523445	     -7.93988034	     -7.49105236	     -3.26432238	     -1.54956095	      3.20910426	      7.83966937	      0.13682804	     10.03161652	     -8.04716643	     -7.49105236	     -6.76070092	      2.17691023	     -0.58712731	     38.63893756	     -1.50918973	     64.36235327	    119.33275556	     95.69651040	     44.93230578	      0.61572452	     67.80815371	    118.17457203	     99.84113776
      0.21666670	      0.89496159	     -1.76687575	     -0.50603483	     -0.04056049	      1.26374756	     -0.02428953	     -1.28573558	      1.80269630	      6.03693954	      9.22660280	      0.16103460	     10.17581063	     -8.15508467	     -7.49144683	     -3.63438098	     -1.57892077	      2.90593827	      7.99415303	      0.13952429	     10.07022742	     -8.15168619	     -7.49144683	     -6.87024418	      2.24733181	     -0.44520021	     37.77836432	     -1.55639652	     63.94673491	    119.32703341	     95.42632960	     44.02224118	      0.36368707	     67.37655700	    117.85814571	     99.67188783
      0.23333330	      0.88109657	     -1.77517786	     -0.50217790	     -0.05039270	      1.25937534	     -0.02157533	     -1.31605625	      1.85668392	      5.94119051	      9.51198787	      0.16601551	     10.19517942	     -8.29180350	     -7.49395756	     -3.63056112	     -1.62764989	      2.84512871	      8.11974038	      0.14171620	     10.05439450	     -8.00639852	     -7.49395756	     -6.73465842	      2.21630858	     -0.61814205	     37.72241988	     -1.03732048	     63.76794599	    118.89160955	     96.39222569	     44.12422234	      0.30784188	     66.85866248	    118.11264651	    101.11420195
      0.25000000	      0.85707385	     -1.82538030	     -0.62855713	     -0.06308421	      1.25888448	     -0.01872549	     -1.19531729	      1.96636015	      5.87359429	      9.89949680	      0.17277881	     10.24198358	     -8.46688360	     -7.49601131	     -3.38460788	     -1.74671814	      2.68251395	      8.52899649	      0.14885907	     10.27507462	     -8.00529651	     -7.49601131	     -7.05913225	      2.20277577	     -0.72463549	     38.71678360	     -0.50672593	     63.54599728	    118.22357758	     95.27532900	     44.94018629	     -0.13944691	     66.11002708	    117.65599284	    100.57305075
      0.26666670	      0.69152666	     -1.85374272	     -0.70821460	     -0.07090425	      1.25849038	     -0.02338929	     -0.79831281	      2.05041611	      5.87256092	     10.28488992	      0.17950519	     10.20429470	     -8.52503339	     -7.49603470	     -2.96645055	     -1.80116168	      2.61233910	      8.88728931	      0.15511246	     10.37829261	     -8.05741112	     -7.49603470	     -7.38634901	      2.22988618	     -0.67147618	     40.03873919	     -0.52223937	     63.01540843	    118.11351355	     95.22183841	     46.07825607	     -0.29199030	     65.74400992	    117.50580688	    100.54365776
